<svg xmlns="http://www.w3.org/2000/svg" width="32" height="32" viewBox="0 0 410 404" fill="none">
  <path d="M399.641 59.5246L215.643 388.545C211.844 395.338 202.084 395.378 198.228 388.618L10.5817 59.5563C6.38087 52.1896 12.6802 43.2665 21.0281 44.7586L205.223 77.6824C206.398 77.8924 207.601 77.8904 208.776 77.6763L389.119 44.8058C397.439 43.2894 403.768 52.1434 399.641 59.5246Z" fill="url(#paint0_linear)"/>
  <path d="M292.965 1.5744L212.923 16.1404C206.295 17.3339 200.607 11.8558 200.934 5.09267L202.326 1.34804C202.918 -1.11401 200.734 -3.58419 198.211 -3.75139L10.2134 -13.7903C2.51604 -14.1527 -3.01991 6.24779 8.99679 30.3188L184.417 332.267C188.398 339.147 191.628 346.427 193.936 353.964L194.248 355.063C195.516 359.308 201.583 359.929 203.537 355.849L399.228 10.322C405.626 -2.40031 396.504 -10.4214 388.962 -7.94137L303.349 16.732C300.778 17.455 298.569 15.2673 299.275 12.6508L292.965 1.5744Z" fill="url(#paint1_linear)"/>
  <defs>
    <linearGradient id="paint0_linear" x1="6.49994" y1="33.5454" x2="235.989" y2="392.759" gradientUnits="userSpaceOnUse">
      <stop stop-color="#41D1FF"/>
      <stop offset="1" stop-color="#BD34FE"/>
    </linearGradient>
    <linearGradient id="paint1_linear" x1="194.834" y1="22.7702" x2="228.735" y2="304.168" gradientUnits="userSpaceOnUse">
      <stop stop-color="#FFEA83"/>
      <stop offset="1" stop-color="#FF5566"/>
    </linearGradient>
  </defs>
</svg>
